HIERARCHY
ROOT hips
{
  OFFSET 0 10.6860622 2.3727825e-15
  CHANNELS 6 Xposition Yposition Zposition Yrotation Xrotation Zrotation
  JOINT leftUpperLeg
  {
    OFFSET 0.6642549969 -0.9402397400000004 0
    CHANNELS 3 Yrotation Xrotation Zrotation
    JOINT leftLowerLeg
    {
      OFFSET 0 -3.997221335632195 0
      CHANNELS 3 Yrotation Xrotation Zrotation
      JOINT leftFoot
      {
        OFFSET -0.13777839790000004 -4.6145792000000005 -0.22186036399999998
        CHANNELS 3 Yrotation Xrotation Zrotation
        JOINT leftToes
        {
          OFFSET -0.03777410834999995 -0.9130806927000008 0.85230013
          CHANNELS 3 Yrotation Xrotation Zrotation
          End Site
          {
            OFFSET -0.03777410834999995 -0.9130806927000008 0.85230013
          }
        }
      }
    }
  }
  JOINT rightUpperLeg
  {
    OFFSET -0.6642778626 -0.9402397400000004 0
    CHANNELS 3 Yrotation Xrotation Zrotation
    JOINT rightLowerLeg
    {
      OFFSET 0 -3.997221452859387 0
      CHANNELS 3 Yrotation Xrotation Zrotation
      JOINT rightFoot
      {
        OFFSET 0.1377926176 -4.6145792000000005 -0.22185782299999995
        CHANNELS 3 Yrotation Xrotation Zrotation
        JOINT rightToes
        {
          OFFSET 0.037780746850000047 -0.9130806927000008 0.85230167
          CHANNELS 3 Yrotation Xrotation Zrotation
          End Site
          {
            OFFSET 0.037780746850000047 -0.9130806927000008 0.85230167
          }
        }
      }
    }
  }
  JOINT spine
  {
    OFFSET 0 0.13988381660000015 0
    CHANNELS 3 Yrotation Xrotation Zrotation
    JOINT chest
    {
      OFFSET 0 0.6191039003973773 0
      CHANNELS 3 Yrotation Xrotation Zrotation
      JOINT upperChest
      {
        OFFSET 0 0.9855186130586943 0
        CHANNELS 3 Yrotation Xrotation Zrotation
        JOINT leftShoulder
        {
          OFFSET 0.1807663869 1.5087829790000005 0
          CHANNELS 3 Yrotation Xrotation Zrotation
          JOINT leftUpperArm
          {
            OFFSET 0.5985063006419806 0 0
            CHANNELS 3 Yrotation Xrotation Zrotation
            JOINT leftLowerArm
            {
              OFFSET 2.2993332369501065 0 0
              CHANNELS 3 Yrotation Xrotation Zrotation
              JOINT leftHand
              {
                OFFSET 2.395047042602395 0 0
                CHANNELS 3 Yrotation Xrotation Zrotation
                JOINT leftIndexProximal
                {
                  OFFSET 0.5766295810000004 0.04556643899499946 0.17265095988184
                  CHANNELS 3 Yrotation Xrotation Zrotation
                  JOINT leftIndexIntermediate
                  {
                    OFFSET 0.2957229000000008 -0.019352197700001517 -0.007932640616999987
                    CHANNELS 3 Yrotation Xrotation Zrotation
                    JOINT leftIndexDistal
                    {
                      OFFSET 0.19008243099999922 -0.012484908149998475 -0.002786250786000012
                      CHANNELS 3 Yrotation Xrotation Zrotation
                      End Site
                      {
                        OFFSET 0.19008243099999922 -0.012484908149998475 -0.002786250786000012
                      }
                    }
                  }
                }
                JOINT leftMiddleProximal
                {
                  OFFSET 0.5834975091000001 0.0524350405149987 0.02204081888183999
                  CHANNELS 3 Yrotation Xrotation Zrotation
                  JOINT leftMiddleIntermediate
                  {
                    OFFSET 0.33880573540000003 -0.019871473270000717 -0.00000971183179999946
                    CHANNELS 3 Yrotation Xrotation Zrotation
                    JOINT leftMiddleDistal
                    {
                      OFFSET 0.20676022730000088 -0.012221336379999448 0.0001471936708000235
                      CHANNELS 3 Yrotation Xrotation Zrotation
                      End Site
                      {
                        OFFSET 0.20676022730000088 -0.012221336379999448 0.0001471936708000235
                      }
                    }
                  }
                }
                JOINT leftLittleProximal
                {
                  OFFSET 0.5344154683999995 -0.012880921405001189 -0.24414037221816004
                  CHANNELS 3 Yrotation Xrotation Zrotation
                  JOINT leftLittleIntermediate
                  {
                    OFFSET 0.21758961730000093 -0.011650919939999227 0.011893592810000034
                    CHANNELS 3 Yrotation Xrotation Zrotation
                    JOINT leftLittleDistal
                    {
                      OFFSET 0.1475273964999999 -0.008152365682999818 0.006001092492999946
                      CHANNELS 3 Yrotation Xrotation Zrotation
                      End Site
                      {
                        OFFSET 0.1475273964999999 -0.008152365682999818 0.006001092492999946
                      }
                    }
                  }
                }
                JOINT leftRingProximal
                {
                  OFFSET 0.5799399463000003 0.026911854694997794 -0.12150566991816003
                  CHANNELS 3 Yrotation Xrotation Zrotation
                  JOINT leftRingIntermediate
                  {
                    OFFSET 0.26167887460000006 -0.013480186499999602 0.010996293000000053
                    CHANNELS 3 Yrotation Xrotation Zrotation
                    JOINT leftRingDistal
                    {
                      OFFSET 0.17667108799999987 -0.008990287899999228 0.0055541023999999065
                      CHANNELS 3 Yrotation Xrotation Zrotation
                      End Site
                      {
                        OFFSET 0.17667108799999987 -0.008990287899999228 0.0055541023999999065
                      }
                    }
                  }
                }
                JOINT leftThumbProximal
                {
                  OFFSET 0.11018806699999972 -0.09448718900500053 0.17047963138184
                  CHANNELS 3 Yrotation Xrotation Zrotation
                  JOINT leftThumbIntermediate
                  {
                    OFFSET 0.31062601459999983 -0.08126270900000132 0.15443142000000007
                    CHANNELS 3 Yrotation Xrotation Zrotation
                    JOINT leftThumbDistal
                    {
                      OFFSET 0.21627175790000086 -0.08833193599999878 0.018771167799999988
                      CHANNELS 3 Yrotation Xrotation Zrotation
                      End Site
                      {
                        OFFSET 0.21627175790000086 -0.08833193599999878 0.018771167799999988
                      }
                    }
                  }
                }
              }
            }
          }
        }
        JOINT neck
        {
          OFFSET 0 1.5463305265074576 0
          CHANNELS 3 Yrotation Xrotation Zrotation
          JOINT head
          {
            OFFSET 0 0.8456443600000344 0
            CHANNELS 3 Yrotation Xrotation Zrotation
            JOINT leftEye
            {
              OFFSET 0.30408573140000006 0.5104519199999995 0.1276382305
              CHANNELS 3 Yrotation Xrotation Zrotation
              End Site
              {
                OFFSET 0.30408573140000006 0.5104519199999995 0.1276382305
              }
            }
            JOINT rightEye
            {
              OFFSET -0.30409491089999996 0.5104519199999995 0.1276379445
              CHANNELS 3 Yrotation Xrotation Zrotation
              End Site
              {
                OFFSET -0.30409491089999996 0.5104519199999995 0.1276379445
              }
            }
            JOINT jaw
            {
              OFFSET -3.155239131000001e-7 -0.11984121820000082 0.60178107
              CHANNELS 3 Yrotation Xrotation Zrotation
              End Site
              {
                OFFSET -3.155239131000001e-7 -0.11984121820000082 0.60178107
              }
            }
          }
        }
        JOINT rightShoulder
        {
          OFFSET -0.1807303465 1.5087829790000005 0
          CHANNELS 3 Yrotation Xrotation Zrotation
          JOINT rightUpperArm
          {
            OFFSET -0.5985063796536958 0 0
            CHANNELS 3 Yrotation Xrotation Zrotation
            JOINT rightLowerArm
            {
              OFFSET -2.2993322059002854 0 0
              CHANNELS 3 Yrotation Xrotation Zrotation
              JOINT rightHand
              {
                OFFSET -2.395045314457259 0 0
                CHANNELS 3 Yrotation Xrotation Zrotation
                JOINT rightIndexProximal
                {
                  OFFSET -0.5764487688300002 0.0441371204405987 0.17361932004999997
                  CHANNELS 3 Yrotation Xrotation Zrotation
                  JOINT rightIndexIntermediate
                  {
                    OFFSET -0.29573011380000047 -0.01934826376999843 -0.007698921482999974
                    CHANNELS 3 Yrotation Xrotation Zrotation
                    JOINT rightIndexDistal
                    {
                      OFFSET -0.19008373999999884 -0.012503266380000655 -0.0026365778999999897
                      CHANNELS 3 Yrotation Xrotation Zrotation
                      End Site
                      {
                        OFFSET -0.19008373999999884 -0.012503266380000655 -0.0026365778999999897
                      }
                    }
                  }
                }
                JOINT rightMiddleProximal
                {
                  OFFSET -0.5834852037300005 0.05211639405060153 0.02307162440000001
                  CHANNELS 3 Yrotation Xrotation Zrotation
                  JOINT rightMiddleIntermediate
                  {
                    OFFSET -0.33880114510000003 -0.019952774050000954 0.0002455003561999819
                    CHANNELS 3 Yrotation Xrotation Zrotation
                    JOINT rightMiddleDistal
                    {
                      OFFSET -0.20675694929999955 -0.012273788999999091 0.00030209124000002766
                      CHANNELS 3 Yrotation Xrotation Zrotation
                      End Site
                      {
                        OFFSET -0.20675694929999955 -0.012273788999999091 0.00030209124000002766
                      }
                    }
                  }
                }
                JOINT rightLittleProximal
                {
                  OFFSET -0.5346811737299992 -0.011214256288399227 -0.24363941305000003
                  CHANNELS 3 Yrotation Xrotation Zrotation
                  JOINT rightLittleIntermediate
                  {
                    OFFSET -0.21757715980000092 -0.011771559690000988 0.01201554387
                    CHANNELS 3 Yrotation Xrotation Zrotation
                    JOINT rightLittleDistal
                    {
                      OFFSET -0.1475201849000004 -0.00822055339600003 0.006082065407000015
                      CHANNELS 3 Yrotation Xrotation Zrotation
                      End Site
                      {
                        OFFSET -0.1475201849000004 -0.00822055339600003 0.006082065407000015
                      }
                    }
                  }
                }
                JOINT rightRingProximal
                {
                  OFFSET -0.5800810755299999 0.027657985680600072 -0.12066365025000003
                  CHANNELS 3 Yrotation Xrotation Zrotation
                  JOINT rightRingIntermediate
                  {
                    OFFSET -0.26166445029999974 -0.013623118409999302 0.011164098990000045
                    CHANNELS 3 Yrotation Xrotation Zrotation
                    JOINT rightRingDistal
                    {
                      OFFSET -0.17666387530000027 -0.009072900100000503 0.005668185599999959
                      CHANNELS 3 Yrotation Xrotation Zrotation
                      End Site
                      {
                        OFFSET -0.17666387530000027 -0.009072900100000503 0.005668185599999959
                      }
                    }
                  }
                }
                JOINT rightThumbProximal
                {
                  OFFSET -0.10997596379000074 -0.09577489355940072 0.16989765924999997
                  CHANNELS 3 Yrotation Xrotation Zrotation
                  JOINT rightThumbIntermediate
                  {
                    OFFSET -0.31036620999999986 -0.08229339117999834 0.15440884469999996
                    CHANNELS 3 Yrotation Xrotation Zrotation
                    JOINT rightThumbDistal
                    {
                      OFFSET -0.21631306399999906 -0.08825326400000111 0.018656797720000014
                      CHANNELS 3 Yrotation Xrotation Zrotation
                      End Site
                      {
                        OFFSET -0.21631306399999906 -0.08825326400000111 0.018656797720000014
                      }
                    }
                  }
                }
              }
            }
          }
        }
      }
    }
  }
}
MOTION
Frames: 8
Frame Time: 0.03333333333333333
0 11.682712981546562 0 0 0 0 0 0 -5.826343164929014 -0.3712483961610101 -3.6333298826370974 5.838118207697276 0 0 0 0 0 0 0 0 5.826343164929014 0.3712483961610101 -3.6333298826370974 -5.838118207697276 0 0 0 0 0 0 0 -4.610651315171937 0 0 3.0831277533083026 0 0 0 0 0 1.5275236235667615 0 0 0 0 0 0 0 0 0 0 0 0 0 0 0 0 0 0 0 0 0 0 0 0 0 0 0 0 0 0 0 0 0 0 0 0 0 0 0 0 0 0 0 0 0 0 0 0 0 0 0 0 0 0 0 0 1.5275236235667615 0 0 0 0 0 0 0 0 0 0 0 0 0 0 1.5275236235667615 0 0 0 0 0 0 0 0 0 0 0 0 0 0 0 0 0 0 0 0 0 0 0 0 0 0 0 0 0 0 0 0 0 0 0 0 0 0 0 0 0 0 0 0 0 0 0 0 0 0 0 0 0 0 0
0 -0.19590381310264612 -11.145442917315615 0 0 0 2.7092554963851825 -48.87627568687509 19.144603874064618 141.77423151432797 80.63556599920874 141.40000239712253 0 9.998673630623259 0 0 0 0 -0.0018648616543807336 -2.0015400128084777 -0.17657471558839763 0.06630310339046577 -0.6497422874694918 -5.8267189890342515 0 31.998373270806436 0 0 0 0 0 1.387883632336677 0 0 11.082268512054553 0 0 0 0 -28.158570703951582 -8.397045769541075 12.46026230588548 -31.18705800662917 -55.63064452736416 53.441837961800665 -126.20760902544168 19.91859045367889 5.314503078177129 -11.015568090927228 -20.529814750875534 21.386911361246685 0 0 0 0 0 0 0 0 0 0 0 0 0 0 0 0 0 0 0 0 0 0 0 0 0 0 0 0 0 0 0 0 0 0 0 0 0 0 0 0 0 0 0 0 0 0 16.52569885613643 0 0 0 0 0 0 0 0 0 0 0 0 0 0.530138973240291 11.51225756771478 3.0569443857672622 30.539129761087366 9.217910030232815 53.5636285416476 43.54359596517754 -19.95157239064513 4.254738314245988 3.0071148695051453 -5.1941155081595625 -30.137401432727923 0 0 0 0 0 0 0 0 0 0 0 0 0 0 0 0 0 0 0 0 0 0 0 0 0 0 0 0 0 0 0 0 0 0 0 0 0 0 0 0 0 0 0 0 0
0 -0.19590381310264612 -11.145442917315615 0 0 0 2.9296678891396484 -48.922968407770604 19.155207889662396 141.77423151432797 80.63556599920874 141.40000239712253 0 9.998673630623259 0 0 0 0 -0.0018648616543807336 -2.0015400128084777 -0.17657471558839763 0.06630310339046577 -0.6497422874694918 -5.8267189890342515 0 31.998373270806436 0 0 0 0 0 1.3878841661017947 0 0 11.082268512054553 0 0 0 0 -28.158570703951582 -8.397045769541075 12.46026230588548 -31.23102619714817 -55.59723531031551 53.40604820412264 -126.20760902544168 19.91859045367889 5.314503078177129 -11.053784210251909 -20.50989961124148 21.495982769196893 0 0 0 0 0 0 0 0 0 0 0 0 0 0 0 0 0 0 0 0 0 0 0 0 0 0 0 0 0 0 0 0 0 0 0 0 0 0 0 0 0 0 0 0 0 -0.20510435265870475 16.52562939241385 -0.058355528800568934 0 0 0 0 0 0 0 0 0 0 0 0 0.530138973240291 11.51225756771478 3.0569443857672622 30.539129761087366 9.217910030232815 53.5636285416476 43.54359596517754 -19.95157239064513 4.254738314245988 3.0071148695051453 -5.1941155081595625 -30.137401432727923 0 0 0 0 0 0 0 0 0 0 0 0 0 0 0 0 0 0 0 0 0 0 0 0 0 0 0 0 0 0 0 0 0 0 0 0 0 0 0 0 0 0 0 0 0
0 -0.19590381310264612 -11.145442917315615 0 0 0 3.1502734323957684 -48.96969441990676 19.165549253264214 141.77423151432797 80.63556599920874 141.40000239712253 0 9.998673630623259 0 0 0 0 -0.0018648616543807336 -2.0015400128084777 -0.17657471558839763 0.06630310339046577 -0.6497422874694918 -5.8267189890342515 0 31.998373270806436 0 0 0 0 0 1.387884699866912 0 0 11.082268512054553 0 0 0 0 -28.158570703951582 -8.397045769541075 12.46026230588548 -31.274997628770333 -55.56384243892332 53.37024413041246 -126.20760902544168 19.91859045367889 5.314503078177129 -11.091953895160334 -20.489915968653243 21.605027142325675 0 0 0 0 0 0 0 0 0 0 0 0 0 0 0 0 0 0 0 0 0 0 0 0 0 0 0 0 0 0 0 0 0 0 0 0 0 0 0 0 0 0 0 0 0 -0.4102083749181563 16.525358662246376 -0.11671036661725502 0 0 0 0 0 0 0 0 0 0 0 0 0.530138973240291 11.51225756771478 3.0569443857672622 30.539129761087366 9.217910030232815 53.5636285416476 43.54359596517754 -19.95157239064513 4.254738314245988 3.0071148695051453 -5.1941155081595625 -30.137401432727923 0 0 0 0 0 0 0 0 0 0 0 0 0 0 0 0 0 0 0 0 0 0 0 0 0 0 0 0 0 0 0 0 0 0 0 0 0 0 0 0 0 0 0 0 0
0 -0.19590381310264612 -11.145442917315615 0 0 0 3.5922217489772668 -49.06324160553745 19.185439934138635 141.77423151432797 80.63556599920874 141.40000239712253 0 9.998675364505148 0 0 0 0 -0.0018648616543807336 -2.0015400128084777 -0.17657471558839763 0.06630310339046577 -0.6497422874694918 -5.8267189890342515 0 31.998373270806436 0 0 0 0 0 1.387883632336677 0 0 11.082268512054553 0 0 0 0 -28.158572333044603 -8.39704749559187 12.46026230588548 -31.362877108649844 -55.49709346346674 53.29851022536169 -126.20760902544168 19.91859045367889 5.314503078177129 -11.168164795801305 -20.449739627302524 21.82305388580016 0 0 0 0 0 0 0 0 0 0 0 0 0 0 0 0 0 0 0 0 0 0 0 0 0 0 0 0 0 0 0 0 0 0 0 0 0 0 0 0 0 0 0 0 0 -0.8205626802515263 16.52420806326877 -0.2334574622624981 0 0 0 0 0 0 0 0 0 0 0 0 0.530138973240291 11.51225756771478 3.0569443857672622 30.539129761087366 9.217910030232815 53.5636285416476 43.54359596517754 -19.95157239064513 4.254738314245988 3.0071148695051453 -5.1941155081595625 -30.137401432727923 0 0 0 0 0 0 0 0 0 0 0 0 0 0 0 0 0 0 0 0 0 0 0 0 0 0 0 0 0 0 0 0 0 0 0 0 0 0 0 0 0 0 0 0 0
0 -0.19590381310264612 -11.145442917315615 0 0 0 3.813559971736572 -49.11006302066667 19.194984895454553 141.77423151432797 80.63556599920874 141.40000239712253 0 9.998675364505148 0 0 0 0 -0.0018648616543807336 -2.0015400128084777 -0.17657471558839763 0.06630310339046577 -0.6497422874694918 -5.8267189890342515 0 31.998373270806436 0 0 0 0 0 1.3878841661017947 0 0 11.082268512054553 0 0 0 0 -28.15857385480851 -8.397045769541075 12.46026230588548 -31.40683459043487 -55.46373727450416 53.26263466394111 -126.20760902544168 19.91859045367889 5.314503078177129 -11.206209583306384 -20.429546978308817 21.932044959231316 0 0 0 0 0 0 0 0 0 0 0 0 0 0 0 0 0 0 0 0 0 0 0 0 0 0 0 0 0 0 0 0 0 0 0 0 0 0 0 0 0 0 0 0 0 -1.025808547369074 16.52333176028681 -0.2918465698576279 0 0 0 0 0 0 0 0 0 0 0 0 0.5301390821484376 11.51225756771478 3.05694482079859 30.539129761087366 9.217910030232815 53.5636285416476 43.54359596517754 -19.95157239064513 4.254738314245988 3.0071148695051453 -5.1941155081595625 -30.137401432727923 0 0 0 0 0 0 0 0 0 0 0 0 0 0 0 0 0 0 0 0 0 0 0 0 0 0 0 0 0 0 0 0 0 0 0 0 0 0 0 0 0 0 0 0 0
0 -0.19590381310264612 -11.145442917315615 0 0 0 4.035096177624715 -49.156907776221935 19.204261421939183 141.77423151432797 80.63556599920874 141.40000239712253 0 9.998673630623259 0 0 0 0 -0.0018648616543807336 -2.0015400128084777 -0.17657471558839763 0.06630310339046577 -0.6497422874694918 -5.8267189890342515 0 31.998373270806436 0 0 0 0 0 1.387884699866912 0 0 11.082268512054553 0 0 0 0 -28.15857385480851 -8.397044906515681 12.46026230588548 -31.450791649433302 -55.43039122214563 53.22674344859015 -126.20760902544168 19.91859045367889 5.314503078177129 -11.244208624827069 -20.409285924943248 22.041008151625633 0 0 0 0 0 0 0 0 0 0 0 0 0 0 0 0 0 0 0 0 0 0 0 0 0 0 0 0 0 0 0 0 0 0 0 0 0 0 0 0 0 0 0 0 0 -1.2310523236852462 16.522254198046085 -0.35023173179769046 0 0 0 0 0 0 0 0 0 0 0 0 0.5301391366025111 11.51225756771478 3.0569454733455803 30.539129761087366 9.217910030232815 53.5636285416476 43.54359596517754 -19.95157239064513 4.254738314245988 3.0071148695051453 -5.1941155081595625 -30.137401432727923 0 0 0 0 0 0 0 0 0 0 0 0 0 0 0 0 0 0 0 0 0 0 0 0 0 0 0 0 0 0 0 0 0 0 0 0 0 0 0 0 0 0 0 0 0
0 -0.19590381310264612 -11.145442917315615 0 0 0 4.478886412040637 -49.25069909066799 19.22201657989252 141.77426073462263 80.63556599920874 141.40003185910095 0 9.998673630623259 0 0 0 0 -0.0018648616543807336 -2.0015400128084777 -0.17657570336216416 0.06630310339046577 -0.6497422874694918 -5.8267189890342515 0 31.998381324675467 0 0 0 0 0 1.387884699866912 0 0 11.082269382051736 0 0 0 0 -28.158570703951582 -8.397045769541075 12.46026230588548 -31.538693576671573 -55.36375341412567 53.154890980997386 -126.2076250404914 19.91859045367889 5.314503078177129 -11.32006982099226 -20.368551417288103 22.258866573240265 0 0 0 0 0 0 0 0 0 0 0 0 0 0 0 0 0 0 0 0 0 0 0 0 0 0 0 0 0 0 0 0 0 0 0 0 0 0 0 0 0 0 0 0 0 -1.6416623474950116 16.519504215210343 -0.46702461991061495 0 0 0 0 0 0 0 0 0 0 0 0 0.530138973240291 11.51225756771478 3.0569443857672622 30.539129761087366 9.217910030232815 53.5636285416476 43.5435984680785 -19.95157239064513 4.254738314245988 3.0071152975618824 -5.194116365453514 -30.137401432727923 0 0 0 0 0 0 0 0 0 0 0 0 0 0 0 0 0 0 0 0 0 0 0 0 0 0 0 0 0 0 0 0 0 0 0 0 0 0 0 0 0 0 0 0 0
